<?xml version="1.0" encoding="utf-8"?>
<!-- Generator: Adobe Illustrator 17.1.0, SVG Export Plug-In . SVG Version: 6.00 Build 0)  -->
<!DOCTYPE svg PUBLIC "-//W3C//DTD SVG 1.1//EN" "http://www.w3.org/Graphics/SVG/1.1/DTD/svg11.dtd">
<svg version="1.1" id="Layer_1" xmlns="http://www.w3.org/2000/svg" xmlns:xlink="http://www.w3.org/1999/xlink" x="0px" y="0px"
	 width="124.667px" height="125.667px" viewBox="0 0 124.667 125.667" enable-background="new 0 0 124.667 125.667"
	 xml:space="preserve">
<g>
	<circle fill="#409FBC" cx="61.861" cy="62.5" r="60.5"/>
	<path fill="#FFFFFF" d="M61.859,25c-20.71,0-37.5,16.79-37.5,37.5s16.79,37.5,37.5,37.5s37.5-16.79,37.5-37.5S82.568,25,61.859,25z
		 M61.27,86.047c-3.585,0-6.019-2.641-6.019-6.157c0-3.59,2.503-6.157,6.019-6.157c3.654,0,6.025,2.567,6.088,6.157
		C67.358,83.406,64.924,86.047,61.27,86.047z M69.458,60.877c-2.503,2.768-3.516,5.415-3.447,8.454v1.22h-8.994l-0.069-1.761
		c-0.202-3.452,0.949-6.969,3.988-10.623c2.169-2.572,3.93-4.736,3.93-7.038c0-2.371-1.559-3.924-4.948-4.062
		c-2.227,0-4.937,0.811-6.698,2.031l-2.302-7.377c2.434-1.421,6.497-2.774,11.301-2.774c8.931,0,12.993,4.937,12.993,10.559
		C75.212,54.651,72.03,58.035,69.458,60.877z"/>
</g>
</svg>
