<?xml version="1.0" encoding="utf-8"?>
<!-- Generator: Adobe Illustrator 17.1.0, SVG Export Plug-In . SVG Version: 6.00 Build 0)  -->
<!DOCTYPE svg PUBLIC "-//W3C//DTD SVG 1.1//EN" "http://www.w3.org/Graphics/SVG/1.1/DTD/svg11.dtd">
<svg version="1.1" id="Layer_1" xmlns="http://www.w3.org/2000/svg" xmlns:xlink="http://www.w3.org/1999/xlink" x="0px" y="0px"
	 width="42px" height="34.024px" viewBox="0 0 42 34.024" enable-background="new 0 0 42 34.024" xml:space="preserve">
<path fill="#409FBC" d="M36.916,22.217l4.965-14.861c0.249-0.714,0.061-1.144-0.14-1.427c-0.515-0.725-1.573-0.732-1.778-0.732
	L11.901,5.191l-0.749-3.553C10.95,0.8,10.353,0,9.148,0H1.262C0.445,0,0,0.383,0,1.147v2.051C0,3.937,0.443,4.13,1.291,4.13h6.658
	l5.096,21.635c-0.809,0.858-1.25,2.107-1.25,3.273c0,2.566,2.043,4.931,4.653,4.931c2.464,0,4.311-2.308,4.611-3.685h9.925
	c0.3,1.377,1.796,3.74,4.61,3.74c2.564,0,4.65-2.222,4.65-4.783c0-2.548-1.549-4.807-4.624-4.807c-1.279,0-2.796,0.688-3.501,1.721
	H19.925c-0.885-1.377-2.094-1.803-3.316-1.851l-0.169-0.902h18.554C36.393,23.401,36.668,22.892,36.916,22.217z M35.629,27.436
	c0.965,0,1.748,0.783,1.748,1.748s-0.783,1.748-1.748,1.748c-0.965,0-1.75-0.782-1.75-1.748
	C33.881,28.219,34.664,27.436,35.629,27.436z M18.177,29.184c0,0.976-0.793,1.77-1.766,1.77c-0.976-0.003-1.77-0.794-1.77-1.77
	s0.794-1.77,1.77-1.77C17.384,27.414,18.177,28.208,18.177,29.184z"/>
</svg>
