<?xml version="1.0" encoding="utf-8"?>
<!-- Generator: Adobe Illustrator 17.1.0, SVG Export Plug-In . SVG Version: 6.00 Build 0)  -->
<!DOCTYPE svg PUBLIC "-//W3C//DTD SVG 1.1//EN" "http://www.w3.org/Graphics/SVG/1.1/DTD/svg11.dtd">
<svg version="1.1" id="Layer_1" xmlns="http://www.w3.org/2000/svg" xmlns:xlink="http://www.w3.org/1999/xlink" x="0px" y="0px"
	 width="65px" height="52px" viewBox="0 0 65 52" enable-background="new 0 0 65 52" xml:space="preserve">
<g>
	<path fill="#FFFFFF" d="M32.5,19.5c-5.385,0-9.75,4.367-9.75,9.75c0,5.385,4.365,9.75,9.75,9.75c5.384,0,9.75-4.365,9.75-9.75
		C42.25,23.867,37.884,19.5,32.5,19.5z M58.5,9.75h-7.8c-1.073,0-2.228-0.832-2.567-1.85l-2.016-6.051
		C45.777,0.832,44.623,0,43.55,0h-22.1c-1.072,0-2.228,0.832-2.567,1.85l-2.016,6.051C16.527,8.918,15.373,9.75,14.3,9.75H6.5
		c-3.575,0-6.5,2.925-6.5,6.5V45.5C0,49.075,2.925,52,6.5,52h52c3.575,0,6.5-2.925,6.5-6.5V16.25C65,12.675,62.075,9.75,58.5,9.75z
		 M32.5,45.5c-8.975,0-16.25-7.275-16.25-16.25C16.25,20.276,23.525,13,32.5,13c8.973,0,16.25,7.276,16.25,16.25
		C48.75,38.225,41.473,45.5,32.5,45.5z M56.225,20.795c-1.256,0-2.275-1.018-2.275-2.275c0-1.256,1.019-2.275,2.275-2.275
		c1.257,0,2.275,1.019,2.275,2.275C58.5,19.778,57.481,20.795,56.225,20.795z"/>
</g>
</svg>
