<?xml version="1.0" encoding="utf-8"?>
<!-- Generator: Adobe Illustrator 17.1.0, SVG Export Plug-In . SVG Version: 6.00 Build 0)  -->
<!DOCTYPE svg PUBLIC "-//W3C//DTD SVG 1.1//EN" "http://www.w3.org/Graphics/SVG/1.1/DTD/svg11.dtd">
<svg version="1.1" id="Layer_1" xmlns="http://www.w3.org/2000/svg" xmlns:xlink="http://www.w3.org/1999/xlink" x="0px" y="0px"
	 width="124.667px" height="125.667px" viewBox="0 0 124.667 125.667" enable-background="new 0 0 124.667 125.667"
	 xml:space="preserve">
<g>
	<circle fill="#409FBC" cx="62.269" cy="62.833" r="60.5"/>
	<g>
		<path fill="#FFFFFF" d="M62.269,56.333c-5.385,0-9.75,4.367-9.75,9.75c0,5.385,4.365,9.75,9.75,9.75c5.384,0,9.75-4.365,9.75-9.75
			C72.019,60.7,67.653,56.333,62.269,56.333z M88.269,46.583h-7.8c-1.073,0-2.228-0.832-2.567-1.85l-2.016-6.051
			c-0.34-1.017-1.494-1.849-2.567-1.849h-22.1c-1.072,0-2.228,0.832-2.567,1.85l-2.016,6.051c-0.34,1.017-1.494,1.849-2.567,1.849
			h-7.8c-3.575,0-6.5,2.925-6.5,6.5v29.25c0,3.575,2.925,6.5,6.5,6.5h52c3.575,0,6.5-2.925,6.5-6.5v-29.25
			C94.769,49.508,91.844,46.583,88.269,46.583z M62.269,82.333c-8.975,0-16.25-7.275-16.25-16.25c0-8.974,7.275-16.25,16.25-16.25
			c8.973,0,16.25,7.276,16.25,16.25C78.519,75.058,71.243,82.333,62.269,82.333z M85.994,57.629c-1.256,0-2.275-1.018-2.275-2.275
			c0-1.256,1.019-2.275,2.275-2.275c1.257,0,2.275,1.019,2.275,2.275C88.269,56.611,87.251,57.629,85.994,57.629z"/>
	</g>
</g>
</svg>
