<?xml version="1.0" encoding="utf-8"?>
<!-- Generator: Adobe Illustrator 17.1.0, SVG Export Plug-In . SVG Version: 6.00 Build 0)  -->
<!DOCTYPE svg PUBLIC "-//W3C//DTD SVG 1.1//EN" "http://www.w3.org/Graphics/SVG/1.1/DTD/svg11.dtd">
<svg version="1.1" id="Layer_1" xmlns="http://www.w3.org/2000/svg" xmlns:xlink="http://www.w3.org/1999/xlink" x="0px" y="0px"
	 width="33.992px" height="30px" viewBox="0 0 33.992 30" enable-background="new 0 0 33.992 30" xml:space="preserve">
<path fill="#409FBC" d="M32.556,0H1.437C0.645,0,0,0.643,0,1.437v21.848c0,0.793,0.643,1.437,1.437,1.437H18.69l6.617,4.944
	c0.894,0.668,1.624,0.301,1.624-0.814v-4.131h5.624c0.793,0,1.437-0.643,1.437-1.437V1.436C33.992,0.643,33.349,0,32.556,0z
	 M9.157,14.413c-1.228,0-2.222-0.996-2.222-2.222c0-1.228,0.996-2.222,2.222-2.222s2.222,0.996,2.222,2.222
	C11.378,13.417,10.384,14.413,9.157,14.413z M16.997,14.413c-1.228,0-2.222-0.996-2.222-2.222c0-1.228,0.996-2.222,2.222-2.222
	s2.222,0.996,2.222,2.222S18.225,14.413,16.997,14.413z M24.838,14.413c-1.228,0-2.222-0.996-2.222-2.222
	c0-1.228,0.996-2.222,2.222-2.222c1.227,0,2.222,0.996,2.222,2.222S26.066,14.413,24.838,14.413z"/>
</svg>
