<?xml version="1.0" encoding="utf-8"?>
<!-- Generator: Adobe Illustrator 17.1.0, SVG Export Plug-In . SVG Version: 6.00 Build 0)  -->
<!DOCTYPE svg PUBLIC "-//W3C//DTD SVG 1.1//EN" "http://www.w3.org/Graphics/SVG/1.1/DTD/svg11.dtd">
<svg version="1.1" id="Layer_1" xmlns="http://www.w3.org/2000/svg" xmlns:xlink="http://www.w3.org/1999/xlink" x="0px" y="0px"
	 width="203px" height="193px" viewBox="0 0 203 193" enable-background="new 0 0 203 193" xml:space="preserve">
<g>
	<polygon fill="#FFFFFF" points="50.524,122.086 0.736,72.594 70.484,63.213 102.386,0.608 132.76,63.848 202.264,74.647 
		151.288,123.112 162.343,192.392 100.463,159.105 37.791,191.123 	"/>
	<g>
		<path fill="#6C6D70" d="M88.64,155.61c-1.836-0.332-3.589-0.946-5.325-1.604c-10.149-3.85-18.263-10.284-24.353-19.265
			c-3.499-5.161-5.898-10.811-7.295-16.876c-0.676-2.935-1.054-5.92-1.191-8.938c-0.169-3.715,0.04-7.409,0.681-11.062
			c0.748-4.27,2.036-8.388,3.855-12.337c2.766-6.003,6.545-11.277,11.366-15.79c7.354-6.883,16.005-11.221,25.923-12.975
			c6.435-1.138,12.87-1.011,19.264,0.351c7.516,1.601,14.321,4.763,20.4,9.468c2.865,2.217,5.477,4.705,7.797,7.49
			c4.928,5.914,8.391,12.581,10.278,20.054c0.051,0.2,0.07,0.408,0.105,0.613c-0.422,0.068-0.686-0.01-0.816-0.513
			c-0.815-3.159-1.929-6.214-3.325-9.164c-0.256-0.541-0.439-0.614-0.869-0.193c-1.332,1.303-2.644,2.627-3.954,3.953
			c-0.278,0.281-0.324,0.565-0.149,0.998c0.569,1.409,1.092,2.842,1.543,4.294c0.625,2.01,1.008,4.07,1.322,6.158
			c0.317,2.111,0.51,4.226,0.515,6.342c0.004,1.912-0.171,3.83-0.402,5.742c-0.496,4.111-1.706,8.019-3.336,11.785
			c-2.661,6.148-6.645,11.338-11.763,15.67c-5.096,4.314-10.918,7.192-17.352,8.872c-4.026,1.051-8.126,1.411-12.282,1.269
			c-1.609-0.055-3.208-0.193-4.795-0.42c-2.788-0.399-5.502-1.131-8.161-2.053c-0.474-0.164-0.744-0.083-1.079,0.263
			c-1.222,1.264-2.48,2.494-3.722,3.74c-0.591,0.593-0.58,0.775,0.206,1.109c2.131,0.905,4.316,1.665,6.562,2.235
			C88.784,154.954,88.941,155.16,88.64,155.61z M134.164,72.397c-0.044-0.04-0.088-0.079-0.132-0.119
			c-0.235-0.457-0.381-0.066-0.554,0.059c-0.25,0.136-0.268,0.257,0.021,0.361c0.081,0.69-0.014,0.767-0.681,0.559
			c-0.031-0.068-0.062-0.136-0.093-0.203c-0.026,0.02-0.071,0.037-0.073,0.059c-0.009,0.087,0.038,0.144,0.121,0.172
			c0.276,0.508,0.658,0.174,1.004,0.127c0.238,0.117,0.04,0.25-0.006,0.35c-0.116,0.257-0.121,0.483,0.11,0.669
			c0.23,0.185,0.465,0.115,0.692-0.019c0.219-0.129,0.39-0.307,0.519-0.524c0.138-0.231,0.178-0.467-0.032-0.681
			c-0.209-0.213-0.432-0.146-0.685-0.059c-0.208,0.071-0.285,0.439-0.593,0.259c-0.082-0.251,0.111-0.595-0.251-0.753
			c0.001-0.082,0.002-0.163,0.003-0.245c0.15-0.039,0.28-0.17,0.457-0.104c0.035,0.054,0.07,0.109,0.105,0.163
			c0.059,0.077,0.131,0.225,0.223,0.12C134.396,72.501,134.269,72.423,134.164,72.397z M100.835,149.31
			c0.712,0.013,1.42-0.06,2.129-0.086c2.703-0.1,5.369-0.477,7.988-1.122c5.272-1.296,10.144-3.486,14.586-6.631
			c2.307-1.633,4.445-3.463,6.393-5.495c1.471-1.535,2.801-3.203,4.029-4.951c2.572-3.659,4.531-7.621,5.84-11.885
			c1.432-4.666,2.04-9.452,1.838-14.343c-0.115-2.787-0.467-5.531-1.123-8.237c-0.816-3.364-1.986-6.593-3.575-9.678
			c-1.095-2.125-2.403-4.101-3.76-6.061c-1.008-1.455-2.494-2.587-3.005-4.384c-0.036-0.125-0.19-0.217-0.292-0.322
			c-0.948-0.974-1.961-1.874-2.994-2.757c-2.457-2.1-5.128-3.88-7.993-5.365c-2.492-1.291-5.102-2.274-7.794-3.092
			c-3.976-1.209-8.042-1.712-12.164-1.749c-1.996-0.018-4,0.148-5.993,0.426c-4.504,0.628-8.796,1.926-12.875,3.914
			c-5.863,2.858-10.874,6.806-14.932,11.92c-6.519,8.216-9.725,17.565-9.531,28.072c0.042,2.262,0.249,4.499,0.641,6.725
			c1.008,5.715,3.112,10.994,6.237,15.877c1.445,2.258,3.15,4.31,4.95,6.285c0.34,0.373,0.612,0.912,1.179,0.968
			c0.416,0.041,0.717,0.228,0.979,0.488c0.699,0.693,1.473,1.29,2.248,1.894c2.828,2.202,5.832,4.103,9.089,5.616
			C88.612,147.979,94.593,149.221,100.835,149.31z M136.463,77.299c0.309-0.032,0.452-0.3,0.682-0.413
			c0.14-0.069,0.275-0.117,0.389,0.033c0.105,0.139,0.075,0.277-0.039,0.392c-0.18,0.18-0.369,0.351-0.554,0.525
			c0.415-0.121,0.942-0.32,0.821-0.736c-0.131-0.452-0.506-0.954-0.914-1.161c-0.258-0.131-0.62,0.414-0.971,0.701
			c0.338,0.092,0.432-0.15,0.597-0.246c0.174-0.101,0.348-0.313,0.54-0.088c0.218,0.254-0.029,0.397-0.189,0.558
			C136.702,76.988,136.499,77.046,136.463,77.299z M140.29,81.864c0.324,0.361,0.54,0.671,0.101,1.02
			c0.608-0.014,0.861-0.503,1.29-0.686c0.087-0.037,0.136-0.113,0.113-0.198c-0.032-0.119-0.145-0.135-0.251-0.135
			C141.172,81.863,140.8,81.864,140.29,81.864z M135.137,75.688c0.151-0.126,0.302-0.251,0.452-0.379
			c0.169-0.144,0.364-0.266,0.54-0.055c0.152,0.182,0.007,0.343-0.131,0.482c-0.149,0.149-0.359,0.25-0.462,0.596
			c0.41-0.251,0.737-0.45,0.845-0.804c0.167-0.551-0.683-0.464-0.662-0.996C135.792,75.101,135.239,75.228,135.137,75.688z
			 M138.194,79.503c0.548-0.072,0.893-0.457,1.307-0.729c0.079-0.052,0.09-0.15,0.021-0.212c-0.074-0.066-0.17-0.114-0.264-0.147
			c-0.065-0.023-0.132,0.045-0.088,0.098c0.255,0.306-0.111,0.313-0.213,0.407C138.723,79.137,138.451,79.312,138.194,79.503z
			 M139.272,81.01c0.035,0.048,0.07,0.097,0.105,0.145c0.337-0.224,0.677-0.443,1.008-0.674c0.108-0.075,0.312-0.11,0.257-0.288
			c-0.029-0.093-0.188-0.215-0.278-0.207c-0.287,0.027,0.087,0.212-0.052,0.302c-0.121,0.078-0.234,0.171-0.352,0.253
			C139.732,80.698,139.502,80.854,139.272,81.01z M135.37,74.276c-0.262,0.232-0.543,0.481-0.909,0.805
			C135.372,74.635,135.477,74.523,135.37,74.276z"/>
		<path fill="#272729" d="M88.64,155.61c0.301-0.45,0.143-0.656-0.353-0.782c-2.246-0.57-4.431-1.33-6.562-2.235
			c-0.786-0.334-0.797-0.516-0.206-1.109c1.242-1.245,2.5-2.475,3.722-3.74c0.335-0.346,0.605-0.427,1.079-0.263
			c2.659,0.922,5.374,1.653,8.161,2.053c1.586,0.227,3.186,0.365,4.795,0.42c4.156,0.142,8.256-0.218,12.282-1.269
			c6.434-1.68,12.256-4.557,17.352-8.872c5.117-4.332,9.101-9.521,11.763-15.67c1.63-3.766,2.84-7.673,3.336-11.785
			c0.231-1.912,0.406-3.83,0.402-5.742c-0.005-2.116-0.198-4.231-0.515-6.342c-0.313-2.089-0.697-4.149-1.322-6.158
			c-0.451-1.451-0.973-2.884-1.543-4.294c-0.175-0.433-0.128-0.717,0.149-0.998c1.31-1.326,2.621-2.65,3.954-3.953
			c0.43-0.421,0.613-0.348,0.869,0.193c1.397,2.95,2.51,6.005,3.325,9.164c0.13,0.503,0.394,0.58,0.816,0.513
			c0.445,1.888,0.758,3.792,1.006,5.721c0.273,2.119,0.406,4.231,0.397,6.356c-0.048,10.844-3.214,20.705-9.605,29.454
			c-7.579,10.377-17.706,16.986-30.26,19.759c-7.653,1.69-15.316,1.5-22.933-0.365C88.712,155.656,88.677,155.629,88.64,155.61z
			 M146.843,104.427c0.658-0.261,1.157-0.439,1.636-0.659c0.25-0.115,0.219-0.318-0.035-0.387c-0.519-0.139-1.025-0.356-1.667-0.391
			C147.643,103.573,147.646,103.606,146.843,104.427z M146.764,110.24c0.14,0.263,0.257,0.216,0.352,0.24
			c0.161,0.04,0.423-0.067,0.423,0.228c0,0.254-0.205,0.334-0.421,0.378c-0.147,0.03-0.353-0.035-0.373,0.252
			c0.422,0.021,0.833-0.28,1.277,0.042c0.217,0.157,0.461-0.118,0.49-0.402c0.02-0.199,0.235-0.513-0.099-0.581
			C147.902,110.293,147.371,110.292,146.764,110.24z M146.935,105.736c0.503-0.043,0.884-0.335,1.346-0.077
			c0.207,0.116,0.435-0.197,0.438-0.479c0.002-0.206,0.122-0.534-0.195-0.567c-0.511-0.054-1.031-0.014-1.647-0.014
			c0.291,0.422,0.753,0.015,0.825,0.414C147.794,105.527,147.15,105.331,146.935,105.736z M146.943,107.481
			c0.112,0.351,0.583,0.246,0.579,0.696c-0.004,0.451-0.511,0.303-0.577,0.701c0.551-0.162,1.064-0.296,1.566-0.467
			c0.239-0.082,0.291-0.268,0.016-0.374C148.023,107.842,147.536,107.585,146.943,107.481z M146.61,112.369
			c0.47,0.054,0.685,0.273,0.709,0.747c0.012,0.237,0.244,0.384,0.504,0.362c0.363-0.031,0.464-0.312,0.505-0.609
			c0.019-0.138,0.127-0.351-0.135-0.397C147.678,112.38,147.164,112.277,146.61,112.369z M147.077,107.211
			c0.026-0.491,0.066-0.946,0.68-1.004c0.747-0.07,0.831,0.464,0.886,1.031c0.155-0.438,0.136-0.829-0.254-1.107
			c-0.354-0.252-0.748-0.267-1.106-0.013C146.884,106.403,146.914,106.802,147.077,107.211z M148.528,110.123
			c0.17-0.632,0.177-0.86,0.041-1.238c-0.266,1.043-1.182,0.069-1.636,0.521C147.364,109.872,148.361,109.067,148.528,110.123z
			 M146.728,111.626c-0.007,0.062-0.014,0.124-0.02,0.186c0.56,0.07,1.113,0.245,1.696-0.001
			C147.845,111.75,147.286,111.688,146.728,111.626z"/>
		<path fill="#272729" d="M100.835,149.31c-6.242-0.089-12.223-1.331-17.905-3.972c-3.257-1.514-6.261-3.415-9.089-5.616
			c-0.775-0.604-1.549-1.2-2.248-1.894c-0.262-0.26-0.563-0.448-0.979-0.488c-0.567-0.055-0.839-0.595-1.179-0.968
			c-1.8-1.975-3.506-4.027-4.95-6.285c-3.124-4.883-5.229-10.162-6.237-15.877c-0.393-2.226-0.6-4.463-0.641-6.725
			c-0.194-10.507,3.012-19.856,9.531-28.072c4.058-5.114,9.069-9.062,14.932-11.92c4.08-1.989,8.371-3.286,12.875-3.914
			c1.993-0.278,3.997-0.443,5.993-0.426c4.122,0.037,8.189,0.54,12.164,1.749c2.691,0.818,5.302,1.801,7.794,3.092
			c2.865,1.485,5.535,3.265,7.993,5.365c1.033,0.883,2.046,1.783,2.994,2.757c0.102,0.105,0.257,0.197,0.292,0.322
			c0.511,1.797,1.997,2.929,3.005,4.384c1.358,1.96,2.666,3.936,3.76,6.061c1.589,3.085,2.759,6.314,3.575,9.678
			c0.656,2.706,1.008,5.45,1.123,8.237c0.202,4.892-0.406,9.677-1.838,14.343c-1.309,4.264-3.268,8.226-5.84,11.885
			c-1.229,1.748-2.558,3.416-4.029,4.951c-1.948,2.033-4.086,3.862-6.393,5.495c-4.442,3.144-9.314,5.334-14.586,6.631
			c-2.62,0.644-5.285,1.022-7.988,1.122C102.255,149.25,101.547,149.323,100.835,149.31z M98.715,64.25
			c-9.287,0.186-19.187,4.093-27.296,12.088c-9.593,9.459-13.815,21.07-12.577,34.45c0.907,9.802,4.957,18.349,11.908,25.38
			c8.345,8.441,18.538,12.74,30.395,12.71c23.313-0.058,42.279-18.911,42.15-42.568C143.169,83.254,124.551,64.186,98.715,64.25z"/>
		<path fill="#6C6D70" d="M136.463,77.299c0.036-0.254,0.239-0.311,0.362-0.435c0.16-0.161,0.406-0.304,0.189-0.558
			c-0.193-0.225-0.366-0.013-0.54,0.088c-0.165,0.096-0.259,0.338-0.597,0.246c0.351-0.287,0.714-0.833,0.971-0.701
			c0.407,0.208,0.783,0.709,0.914,1.161c0.12,0.417-0.406,0.616-0.821,0.736c0.185-0.175,0.374-0.346,0.554-0.525
			c0.115-0.115,0.145-0.253,0.039-0.392c-0.114-0.15-0.249-0.102-0.389-0.033C136.915,76.999,136.772,77.267,136.463,77.299z"/>
		<path fill="#6C6D70" d="M140.29,81.864c0.51,0,0.882-0.001,1.253,0.001c0.106,0.001,0.219,0.016,0.251,0.135
			c0.023,0.084-0.026,0.161-0.113,0.198c-0.429,0.183-0.682,0.673-1.29,0.686C140.831,82.535,140.615,82.225,140.29,81.864z"/>
		<path fill="#6C6D70" d="M133.781,73.408c0.308,0.179,0.385-0.188,0.593-0.259c0.253-0.087,0.476-0.153,0.685,0.059
			c0.21,0.214,0.17,0.45,0.032,0.681c-0.129,0.216-0.3,0.394-0.519,0.524c-0.227,0.134-0.461,0.204-0.692,0.019
			c-0.231-0.186-0.226-0.412-0.11-0.669c0.045-0.1,0.243-0.233,0.006-0.35L133.781,73.408z M135.014,73.461
			c-0.02-0.176-0.178-0.244-0.352-0.187c-0.398,0.131-0.694,0.387-0.766,0.822c-0.031,0.188,0.116,0.249,0.28,0.25
			C134.473,74.348,135.034,73.785,135.014,73.461z"/>
		<path fill="#6C6D70" d="M135.137,75.688c0.103-0.46,0.655-0.586,0.582-1.156c-0.021,0.532,0.829,0.445,0.662,0.996
			c-0.108,0.355-0.435,0.553-0.845,0.804c0.102-0.346,0.313-0.447,0.462-0.596c0.138-0.138,0.283-0.3,0.131-0.482
			c-0.176-0.211-0.371-0.089-0.54,0.055C135.439,75.436,135.287,75.562,135.137,75.688z"/>
		<path fill="#6C6D70" d="M138.194,79.503c0.257-0.191,0.53-0.365,0.764-0.582c0.102-0.094,0.468-0.102,0.213-0.407
			c-0.044-0.053,0.023-0.121,0.088-0.098c0.094,0.033,0.19,0.081,0.264,0.147c0.069,0.062,0.059,0.159-0.021,0.212
			C139.087,79.046,138.742,79.431,138.194,79.503z"/>
		<path fill="#6C6D70" d="M139.272,81.01c0.23-0.156,0.46-0.312,0.689-0.469c0.119-0.082,0.231-0.174,0.352-0.253
			c0.139-0.09-0.236-0.275,0.052-0.302c0.09-0.008,0.249,0.114,0.278,0.207c0.055,0.179-0.149,0.213-0.257,0.288
			c-0.332,0.231-0.672,0.45-1.008,0.674C139.342,81.107,139.307,81.058,139.272,81.01z"/>
		<path fill="#6C6D70" d="M133.529,72.655c0.363,0.158,0.169,0.501,0.251,0.753l-0.005,0.005c-0.346,0.047-0.728,0.382-1.004-0.127
			l0.049-0.03c0.664,0.209,0.759,0.132,0.678-0.558L133.529,72.655z"/>
		<path fill="#6C6D70" d="M135.37,74.276c0.107,0.247,0.001,0.359-0.909,0.805C134.828,74.756,135.109,74.507,135.37,74.276z"/>
		<path fill="#6C6D70" d="M133.987,72.308c-0.174-0.068-0.304,0.063-0.454,0.102c-0.019-0.024-0.037-0.049-0.056-0.074
			c0.174-0.124,0.32-0.515,0.555-0.058L133.987,72.308z"/>
		<path fill="#6C6D70" d="M133.499,72.698c-0.289-0.104-0.272-0.226-0.022-0.362c0.018,0.024,0.036,0.049,0.055,0.073
			c-0.001,0.082-0.002,0.163-0.003,0.245L133.499,72.698z"/>
		<path fill="#6C6D70" d="M134.164,72.397c0.105,0.026,0.232,0.105,0.154,0.193c-0.092,0.104-0.164-0.043-0.223-0.12
			C134.119,72.446,134.142,72.422,134.164,72.397z"/>
		<path fill="#6C6D70" d="M132.772,73.286c-0.083-0.028-0.129-0.086-0.121-0.172c0.002-0.022,0.048-0.04,0.073-0.059
			c0.031,0.068,0.062,0.136,0.095,0.203C132.821,73.256,132.772,73.286,132.772,73.286z"/>
		<path fill="#6C6D70" d="M134.095,72.469c-0.035-0.054-0.07-0.109-0.107-0.162c-0.001,0.001,0.044-0.029,0.044-0.029
			c0.044,0.04,0.088,0.079,0.132,0.119C134.142,72.422,134.119,72.446,134.095,72.469z"/>
		<path fill="#FEFEFE" d="M146.843,104.427c0.803-0.822,0.8-0.854-0.066-1.436c0.642,0.035,1.148,0.251,1.667,0.391
			c0.254,0.068,0.285,0.272,0.035,0.387C148,103.988,147.501,104.166,146.843,104.427z"/>
		<path fill="#FEFEFE" d="M146.764,110.24c0.607,0.052,1.138,0.053,1.647,0.157c0.335,0.068,0.119,0.382,0.099,0.581
			c-0.029,0.284-0.273,0.559-0.49,0.402c-0.444-0.322-0.855-0.021-1.277-0.042c0.02-0.288,0.227-0.223,0.373-0.252
			c0.217-0.044,0.421-0.124,0.421-0.378c0-0.295-0.262-0.189-0.423-0.228C147.021,110.457,146.904,110.503,146.764,110.24z
			 M148.028,111.203c0.228-0.014,0.312-0.153,0.34-0.365c0.035-0.269-0.15-0.248-0.314-0.259c-0.161-0.011-0.342-0.063-0.333,0.214
			C147.727,111.011,147.809,111.15,148.028,111.203z"/>
		<path fill="#FEFEFE" d="M146.935,105.736c0.215-0.405,0.859-0.21,0.767-0.723c-0.072-0.399-0.533,0.007-0.825-0.414
			c0.616,0,1.137-0.039,1.647,0.014c0.316,0.033,0.197,0.361,0.195,0.567c-0.003,0.281-0.23,0.594-0.438,0.479
			C147.819,105.401,147.439,105.694,146.935,105.736z M148.542,105.026c0.032-0.209-0.14-0.214-0.315-0.203
			c-0.157,0.01-0.365-0.027-0.339,0.235c0.02,0.194,0.093,0.374,0.327,0.384C148.461,105.452,148.52,105.276,148.542,105.026z"/>
		<path fill="#FEFEFE" d="M146.943,107.481c0.594,0.104,1.08,0.36,1.584,0.555c0.275,0.106,0.223,0.293-0.016,0.374
			c-0.501,0.171-1.015,0.306-1.566,0.467c0.065-0.398,0.573-0.25,0.577-0.701C147.526,107.728,147.055,107.832,146.943,107.481z"/>
		<path fill="#FEFEFE" d="M146.61,112.369c0.554-0.093,1.068,0.011,1.583,0.103c0.263,0.047,0.155,0.259,0.135,0.397
			c-0.041,0.297-0.142,0.579-0.505,0.609c-0.261,0.022-0.492-0.125-0.504-0.362C147.294,112.642,147.08,112.423,146.61,112.369z
			 M148.148,112.807c-0.03-0.192-0.236-0.166-0.414-0.197c-0.236-0.041-0.296,0.075-0.284,0.28c0.014,0.221,0.116,0.362,0.346,0.358
			C148.03,113.246,148.116,113.084,148.148,112.807z"/>
		<path fill="#FEFEFE" d="M147.077,107.211c-0.163-0.409-0.194-0.809,0.206-1.092c0.359-0.254,0.752-0.24,1.106,0.013
			c0.39,0.278,0.409,0.669,0.254,1.107c-0.054-0.567-0.139-1.101-0.886-1.031C147.144,106.265,147.104,106.72,147.077,107.211z"/>
		<path fill="#FEFEFE" d="M148.528,110.122c-0.167-1.056-1.164-0.251-1.595-0.716c0.453-0.452,1.369,0.522,1.636-0.522
			C148.705,109.263,148.697,109.491,148.528,110.122z"/>
		<path fill="#FEFEFE" d="M146.728,111.626c0.559,0.062,1.117,0.124,1.676,0.186c-0.583,0.246-1.136,0.07-1.696,0.001
			C146.714,111.75,146.721,111.688,146.728,111.626z"/>
		<path fill="#6C6D70" d="M98.715,64.25c25.836-0.064,44.454,19.003,44.58,42.06c0.13,23.656-18.836,42.51-42.15,42.568
			c-11.858,0.029-22.051-4.27-30.395-12.71c-6.951-7.031-11.002-15.577-11.908-25.38c-1.237-13.379,2.984-24.991,12.577-34.45
			C79.528,68.343,89.428,64.436,98.715,64.25z M63.798,107.186c0.124,1.616,0.208,3.362,0.491,5.097
			c0.548,3.356,1.448,6.6,2.899,9.677c2.171,4.601,5.011,8.715,8.826,12.131c2.429,2.175,5.093,3.996,7.95,5.546
			c2.135,1.159,4.419,1.946,6.739,2.636c3.387,1.007,6.865,1.434,10.381,1.442c1.513,0.004,3.038-0.11,4.555-0.302
			c3.676-0.465,7.208-1.421,10.574-2.954c5.075-2.312,9.451-5.56,13.062-9.837c1.68-1.99,3.139-4.118,4.401-6.391
			c1.984-3.573,3.15-7.42,3.924-11.412c0.412-2.121,0.533-4.267,0.538-6.408c0.003-1.089-0.073-2.202-0.172-3.304
			c-0.16-1.784-0.549-3.52-0.875-5.269c-0.349-1.872-0.968-3.677-1.739-5.414c-0.191-0.43,0.167-0.739-0.03-1.116
			c-0.26-0.497-0.428-1.042-0.679-1.544c-2.41-4.818-5.707-8.927-9.89-12.321c-2.165-1.757-4.474-3.309-6.988-4.514
			c-2.707-1.298-5.496-2.369-8.45-3.024c-2.78-0.617-5.593-0.901-8.416-0.949c-1.883-0.032-3.786,0.147-5.663,0.44
			c-3.781,0.59-7.404,1.701-10.835,3.391c-4.807,2.367-8.924,5.619-12.338,9.758c-2.14,2.594-3.93,5.404-5.3,8.478
			c-0.063,0.142-0.228,0.293-0.083,0.457c0.233,0.264,0.096,0.507-0.007,0.756c-0.909,2.18-1.574,4.431-2.063,6.742
			C64.045,101.643,63.907,104.345,63.798,107.186z M124.725,74.586c-0.049-0.168-0.183-0.23-0.3-0.318
			c-1.551-1.176-3.211-2.187-4.92-3.102c-2.585-1.383-5.315-2.399-8.155-3.164c-2.63-0.709-5.289-1.184-7.995-1.337
			c-3.493-0.197-6.973,0.014-10.406,0.734c-4.958,1.039-9.579,2.909-13.826,5.687c-3.348,2.19-6.296,4.83-8.85,7.901
			c-1.093,1.315-2.162,2.658-2.985,4.17c-0.088,0.162-0.381,0.357-0.104,0.516c0.244,0.14,0.321-0.201,0.431-0.35
			c0.335-0.45,0.634-0.928,0.96-1.385c2.282-3.195,4.929-6.043,8.036-8.454c6.435-4.994,13.714-7.819,21.843-8.334
			c3.89-0.246,7.754,0.062,11.574,0.951c4.444,1.035,8.549,2.829,12.409,5.226c0.657,0.408,1.285,0.86,1.93,1.288
			c0.082,0.054,0.181,0.088,0.277,0.113C124.657,74.732,124.697,74.634,124.725,74.586z M118.184,71.878
			c-0.171-0.099-0.324-0.201-0.488-0.279c-1.887-0.896-3.838-1.636-5.829-2.255c-3.023-0.94-6.139-1.408-9.294-1.546
			c-3.262-0.143-6.497,0.146-9.695,0.837c-4.075,0.881-7.918,2.343-11.516,4.456c-3.787,2.225-7.086,5.026-9.936,8.359
			c-1.004,1.174-1.952,2.397-2.752,3.724c-0.087,0.144-0.373,0.352-0.082,0.514c0.205,0.114,0.292-0.157,0.397-0.307
			c1.209-1.729,2.489-3.403,3.936-4.94c2.392-2.54,5.067-4.737,8.05-6.553c5.966-3.633,12.439-5.519,19.425-5.636
			c1.966-0.033,3.921,0.109,5.871,0.359c2.931,0.376,5.762,1.142,8.528,2.156c0.978,0.359,1.918,0.823,2.876,1.237
			c0.127,0.055,0.253,0.18,0.402,0.057C118.119,72.028,118.136,71.963,118.184,71.878z M129.507,78.813
			c-0.037,0.025-0.135,0.056-0.162,0.118c-0.079,0.183,0.104,0.253,0.197,0.346c0.989,0.994,1.868,2.082,2.737,3.179
			c2.3,2.901,4.008,6.145,5.498,9.514c0.083,0.188,0.124,0.489,0.386,0.366c0.241-0.113-0.01-0.327-0.067-0.479
			c-1.137-3.069-2.7-5.911-4.605-8.566c-1.048-1.461-2.168-2.864-3.439-4.14C129.91,79.008,129.795,78.81,129.507,78.813z
			 M136.513,91.092c-0.062-0.165-0.121-0.343-0.196-0.515c-1.01-2.299-2.255-4.461-3.733-6.494
			c-1.191-1.638-2.434-3.227-3.879-4.651c-0.184-0.182-0.417-0.416-0.631-0.183c-0.181,0.197,0.14,0.344,0.27,0.476
			c2.827,2.883,5.144,6.128,6.95,9.739c0.279,0.559,0.552,1.121,0.832,1.679c0.054,0.107,0.105,0.243,0.27,0.207
			C136.532,91.321,136.527,91.212,136.513,91.092z"/>
		<path fill="#6C6D70" d="M135.014,73.461c0.02,0.324-0.541,0.887-0.838,0.885c-0.164-0.001-0.311-0.062-0.28-0.25
			c0.071-0.436,0.368-0.692,0.766-0.822C134.836,73.217,134.994,73.286,135.014,73.461z"/>
		<path fill="#272729" d="M148.028,111.203c-0.219-0.053-0.301-0.192-0.307-0.41c-0.009-0.278,0.172-0.225,0.333-0.214
			c0.164,0.011,0.349-0.01,0.314,0.259C148.34,111.05,148.256,111.189,148.028,111.203z"/>
		<path fill="#272729" d="M148.542,105.026c-0.022,0.251-0.081,0.427-0.327,0.416c-0.234-0.01-0.308-0.19-0.327-0.384
			c-0.026-0.262,0.182-0.224,0.339-0.235C148.402,104.811,148.575,104.816,148.542,105.026z"/>
		<path fill="#272729" d="M148.148,112.807c-0.032,0.277-0.118,0.439-0.351,0.442c-0.231,0.003-0.333-0.138-0.346-0.358
			c-0.013-0.205,0.047-0.321,0.284-0.28C147.912,112.642,148.118,112.615,148.148,112.807z"/>
		<path fill="#272729" d="M63.798,107.186c0.109-2.84,0.247-5.543,0.811-8.21c0.489-2.312,1.154-4.562,2.063-6.742
			c0.103-0.248,0.24-0.492,0.007-0.756c-0.145-0.164,0.02-0.315,0.083-0.457c1.369-3.074,3.16-5.883,5.3-8.478
			c3.414-4.139,7.531-7.391,12.338-9.758c3.431-1.689,7.054-2.801,10.835-3.391c1.877-0.293,3.78-0.472,5.663-0.44
			c2.823,0.048,5.636,0.333,8.416,0.949c2.954,0.655,5.743,1.726,8.45,3.024c2.514,1.206,4.823,2.757,6.988,4.514
			c4.182,3.395,7.48,7.504,9.89,12.321c0.251,0.502,0.419,1.048,0.679,1.544c0.198,0.377-0.161,0.686,0.03,1.116
			c0.771,1.737,1.39,3.542,1.739,5.414c0.326,1.749,0.715,3.485,0.875,5.269c0.099,1.102,0.175,2.214,0.172,3.304
			c-0.005,2.141-0.127,4.287-0.538,6.408c-0.774,3.991-1.94,7.838-3.924,11.412c-1.262,2.273-2.721,4.4-4.401,6.391
			c-3.61,4.277-7.987,7.524-13.062,9.837c-3.365,1.533-6.897,2.489-10.574,2.954c-1.517,0.192-3.042,0.306-4.555,0.302
			c-3.516-0.009-6.994-0.435-10.381-1.442c-2.32-0.69-4.604-1.477-6.739-2.636c-2.857-1.551-5.521-3.371-7.95-5.546
			c-3.816-3.417-6.655-7.53-8.826-12.131c-1.452-3.077-2.352-6.321-2.899-9.677C64.006,110.547,63.922,108.802,63.798,107.186z
			 M100.751,73.937c-1.317-0.122-2.755,0.085-4.173,0.28c-4.456,0.614-8.661,2.031-12.475,4.435
			c-2.141,1.349-4.437,2.572-5.639,5.015c-0.282,0.573-0.956,0.93-1.128,1.557c-0.16,0.583-0.515,1-0.868,1.422
			c-2.838,3.405-4.792,7.28-5.976,11.525c-0.9,3.228-1.207,6.545-1.044,9.901c0.02,0.419,0.154,0.544,0.554,0.523
			c1.232-0.063,2.461,0.047,3.69,0.119c0.523,0.031,0.93,0.143,0.941,0.806c0.007,0.412,0.133,0.821,0.196,1.232
			c0.471,3.064,1.479,5.924,3.008,8.635c1.667,2.957,3.806,5.488,6.392,7.654c1.56,1.307,3.268,2.397,5.1,3.29
			c2.897,1.412,5.95,2.284,9.147,2.672c0.235,0.029,0.471,0.065,0.518,0.422c0.185,1.4,0.436,2.791,0.602,4.193
			c0.048,0.404,0.19,0.468,0.537,0.475c0.707,0.015,1.411,0.032,2.12,0.021c1.702-0.027,3.382-0.236,5.034-0.579
			c5.079-1.057,9.655-3.196,13.676-6.504c4.709-3.874,8.039-8.692,9.991-14.463c0.819-2.42,1.322-4.915,1.505-7.459
			c0.083-1.158,0.197-2.33,0.044-3.502c-0.044-0.339-0.169-0.485-0.485-0.525c-1.319-0.167-2.637-0.34-3.955-0.506
			c-0.441-0.056-0.725-0.254-0.792-0.728c-0.103-0.737-0.209-1.474-0.351-2.205c-0.372-1.918-0.983-3.758-1.758-5.554
			c-1.187-2.75-2.773-5.234-4.819-7.416c-1.08-1.152-2.261-2.193-3.518-3.157c-2.108-1.616-4.368-2.928-6.873-3.826
			c-1.847-0.662-3.735-1.135-5.679-1.388c-0.231-0.03-0.388-0.05-0.406-0.343c-0.071-1.204-0.196-2.407-0.238-3.612
			c-0.044-1.268,0.148-1.392,1.423-1.152c0.632,0.119,1.27,0.205,1.906,0.306c0.104,0.017,0.223,0.039,0.264-0.086
			c0.022-0.067,0.008-0.201-0.035-0.226c-0.447-0.259-0.695-0.814-1.263-0.882C104.25,74.108,102.577,73.868,100.751,73.937z"/>
		<path fill="#272729" d="M124.725,74.586c-0.027,0.048-0.068,0.146-0.082,0.142c-0.096-0.025-0.195-0.058-0.277-0.113
			c-0.644-0.427-1.273-0.88-1.93-1.288c-3.86-2.396-7.965-4.191-12.409-5.226c-3.82-0.889-7.684-1.197-11.574-0.951
			c-8.129,0.515-15.408,3.339-21.843,8.334c-3.107,2.411-5.754,5.259-8.036,8.454c-0.326,0.457-0.625,0.935-0.96,1.385
			c-0.111,0.148-0.187,0.49-0.431,0.35c-0.276-0.159,0.016-0.354,0.104-0.516c0.824-1.512,1.892-2.856,2.985-4.17
			c2.554-3.071,5.502-5.711,8.85-7.901c4.247-2.778,8.868-4.648,13.826-5.687c3.433-0.719,6.913-0.93,10.406-0.734
			c2.706,0.152,5.365,0.628,7.995,1.337c2.84,0.765,5.571,1.781,8.155,3.164c1.709,0.914,3.369,1.926,4.92,3.102
			C124.541,74.356,124.676,74.418,124.725,74.586z"/>
		<path fill="#272729" d="M118.184,71.878c-0.048,0.085-0.065,0.15-0.107,0.185c-0.149,0.122-0.275-0.003-0.402-0.057
			c-0.958-0.414-1.898-0.878-2.876-1.237c-2.765-1.015-5.597-1.78-8.528-2.156c-1.95-0.25-3.905-0.392-5.871-0.359
			c-6.986,0.117-13.459,2.003-19.425,5.636c-2.983,1.816-5.658,4.014-8.05,6.553c-1.447,1.537-2.727,3.211-3.936,4.94
			c-0.105,0.15-0.192,0.421-0.397,0.307c-0.291-0.162-0.005-0.37,0.082-0.514c0.799-1.327,1.747-2.55,2.752-3.724
			c2.85-3.332,6.149-6.134,9.936-8.359c3.598-2.113,7.441-3.575,11.516-4.456c3.198-0.691,6.433-0.98,9.695-0.837
			c3.155,0.138,6.271,0.606,9.294,1.546c1.991,0.619,3.942,1.359,5.829,2.255C117.86,71.677,118.013,71.779,118.184,71.878z"/>
		<path fill="#272729" d="M129.507,78.813c0.288-0.003,0.403,0.194,0.546,0.338c1.271,1.276,2.391,2.679,3.439,4.14
			c1.905,2.655,3.468,5.498,4.605,8.566c0.057,0.152,0.308,0.366,0.067,0.479c-0.262,0.123-0.303-0.178-0.386-0.366
			c-1.49-3.369-3.198-6.613-5.498-9.514c-0.869-1.097-1.748-2.185-2.737-3.179c-0.093-0.093-0.276-0.163-0.197-0.346
			C129.372,78.87,129.47,78.838,129.507,78.813z"/>
		<path fill="#272729" d="M136.513,91.092c0.014,0.12,0.019,0.228-0.116,0.259c-0.165,0.037-0.216-0.1-0.27-0.207
			c-0.281-0.558-0.553-1.12-0.832-1.679c-1.805-3.611-4.123-6.857-6.95-9.739c-0.13-0.132-0.451-0.279-0.27-0.476
			c0.213-0.233,0.446,0.001,0.631,0.183c1.445,1.424,2.689,3.013,3.879,4.651c1.478,2.033,2.722,4.195,3.733,6.494
			C136.392,90.749,136.45,90.928,136.513,91.092z"/>
		<path fill="#6C6D70" d="M100.751,73.937c1.826-0.069,3.499,0.172,5.175,0.372c0.568,0.068,0.816,0.624,1.263,0.882
			c0.043,0.025,0.057,0.159,0.035,0.226c-0.041,0.126-0.16,0.103-0.264,0.086c-0.635-0.101-1.274-0.187-1.906-0.306
			c-1.275-0.239-1.467-0.115-1.423,1.152c0.042,1.205,0.167,2.407,0.238,3.612c0.017,0.294,0.175,0.313,0.406,0.343
			c1.944,0.253,3.832,0.726,5.679,1.388c2.505,0.898,4.766,2.21,6.873,3.826c1.258,0.964,2.438,2.005,3.518,3.157
			c2.046,2.183,3.632,4.666,4.819,7.416c0.775,1.795,1.386,3.636,1.758,5.554c0.141,0.73,0.248,1.468,0.351,2.205
			c0.066,0.474,0.35,0.672,0.792,0.728c1.319,0.166,2.637,0.34,3.955,0.506c0.316,0.04,0.44,0.185,0.485,0.525
			c0.153,1.172,0.039,2.343-0.044,3.502c-0.183,2.544-0.687,5.039-1.505,7.459c-1.952,5.77-5.282,10.589-9.991,14.463
			c-4.022,3.308-8.598,5.447-13.676,6.504c-1.652,0.344-3.332,0.553-5.034,0.579c-0.709,0.011-1.413-0.007-2.12-0.021
			c-0.348-0.007-0.489-0.071-0.537-0.475c-0.166-1.402-0.417-2.793-0.602-4.193c-0.047-0.357-0.283-0.394-0.518-0.422
			c-3.197-0.387-6.25-1.259-9.147-2.672c-1.832-0.893-3.54-1.983-5.1-3.29c-2.586-2.166-4.725-4.698-6.392-7.654
			c-1.529-2.711-2.537-5.571-3.008-8.635c-0.063-0.412-0.19-0.821-0.196-1.232c-0.011-0.663-0.418-0.775-0.941-0.806
			c-1.229-0.073-2.457-0.182-3.69-0.119c-0.4,0.02-0.534-0.104-0.554-0.523c-0.162-3.356,0.144-6.673,1.044-9.901
			c1.184-4.246,3.138-8.12,5.976-11.525c0.352-0.423,0.708-0.839,0.868-1.422c0.171-0.626,0.845-0.983,1.128-1.557
			c1.202-2.443,3.499-3.666,5.639-5.015c3.814-2.403,8.019-3.82,12.475-4.435C97.996,74.021,99.434,73.815,100.751,73.937z
			 M127.151,106.915c-0.036-14.445-11.301-26.238-25.882-26.482c-14.322-0.24-26.26,11.3-26.429,25.701
			c-0.171,14.525,11.262,26.215,25.677,26.591C114.872,133.1,127.033,121.549,127.151,106.915z"/>
		<path fill="#FEFEFE" d="M127.151,106.915c-0.118,14.634-12.279,26.185-26.634,25.81c-14.415-0.376-25.847-12.066-25.677-26.591
			c0.169-14.401,12.106-25.941,26.429-25.701C115.85,80.677,127.115,92.47,127.151,106.915z M100.975,81.095
			c-13.949,0.025-25.228,11.131-25.463,25.002c-0.245,14.449,11.193,25.746,25.014,25.974c14.3,0.237,25.709-11.101,25.951-25.008
			C126.727,92.649,115.229,81.136,100.975,81.095z"/>
		<path fill="#272729" d="M100.975,81.095c14.254,0.041,25.752,11.555,25.502,25.968c-0.242,13.907-11.651,25.244-25.951,25.008
			c-13.821-0.229-25.259-11.525-25.014-25.974C75.747,92.225,87.025,81.12,100.975,81.095z M125.858,106.577
			c-0.005-13.702-11.151-24.896-24.847-24.873c-6.84,0.012-12.74,2.452-17.582,7.305c-5.74,5.752-8.064,12.786-7.157,20.765
			c1.192,10.489,10.425,21.605,24.719,21.664C114.694,131.495,125.863,120.274,125.858,106.577z"/>
		<path fill="#6C6D70" d="M125.858,106.577c0.005,13.698-11.165,24.919-24.867,24.861c-14.294-0.06-23.528-11.175-24.719-21.664
			c-0.907-7.979,1.417-15.013,7.157-20.765c4.842-4.853,10.742-7.293,17.582-7.305C114.708,81.68,125.853,92.874,125.858,106.577z
			 M76.855,106.741c0.103,13.382,10.887,24.048,24.253,23.997c13.358-0.051,24.129-10.921,24.029-24.309
			c-0.1-13.401-10.815-24.01-24.258-23.964C87.401,82.511,76.774,93.372,76.855,106.741z"/>
		<path fill="#272729" d="M76.855,106.741c-0.082-13.369,10.546-24.229,24.024-24.276c13.443-0.046,24.158,10.563,24.258,23.964
			c0.1,13.388-10.672,24.258-24.029,24.309C87.743,130.789,76.958,120.123,76.855,106.741z M115.699,118.529l-0.03-0.03
			c0.039-0.488,0.319-0.898,0.439-1.363c0.448-1.733-0.79-3.097-2.476-2.562c-2.762,0.877-4.682,2.654-5.374,5.582
			c-0.364,1.539,1.103,2.632,2.265,2.299c0.158-0.045,0.374-0.143,0.454,0.03c0.111,0.24-0.166,0.297-0.31,0.388
			c-1.075,0.684-2.186,1.298-3.328,1.871c-2.475,1.242-5.072,1.97-7.838,2.041c-1.611,0.041-3.224,0.005-4.836,0.009
			c-0.158,0-0.361-0.056-0.437,0.15c-0.071,0.191,0.076,0.324,0.205,0.42c0.267,0.198,0.536,0.409,0.834,0.549
			c3.237,1.529,6.619,1.909,10.126,1.236c2.343-0.449,4.504-1.377,6.542-2.589c1.781-1.059,3.473-2.276,4.907-3.761
			c2.111-2.187,3.82-4.67,4.97-7.524c0.905-2.246,1.463-4.554,1.664-6.962c0.204-2.437-0.404-4.764-1.003-7.075
			c-0.617-2.379-1.61-4.607-3.302-6.457c-0.142-0.155-0.216-0.513-0.498-0.322c-0.235,0.159-0.042,0.426,0.064,0.62
			c0.55,1.004,1.08,2.015,1.544,3.066c0.758,1.72,1.146,3.523,1.296,5.377c0.199,2.471-0.233,4.862-1.026,7.202
			c-0.664,1.959-1.653,3.748-2.833,5.427C117.122,117,116.508,117.854,115.699,118.529z M92.694,92.656
			c0.014-0.492,0.007-0.925-0.338-1.318c-0.565-0.644-1.272-0.691-2.004-0.53c-1.895,0.418-3.237,1.626-4.355,3.142
			c-0.569,0.77-0.939,1.607-1.07,2.561c-0.115,0.837,0.41,1.877,1.121,1.989c0.57,0.09,1.159,0.108,1.737-0.064
			c1.729-0.513,2.947-1.692,3.974-3.091C92.343,94.55,92.786,93.67,92.694,92.656z M96.497,99.316
			c-1.212-0.001-3.205,1.667-3.395,2.841c-0.195,1.201,0.662,1.987,1.739,1.555c1.362-0.546,2.355-1.478,2.754-2.934
			C97.853,99.837,97.335,99.19,96.497,99.316z M106.796,109.712c-1.214-0.005-2.754,1.246-3.227,2.606
			c-0.175,0.504-0.374,1.012,0.051,1.472c0.45,0.487,1.019,0.373,1.58,0.243c1.028-0.239,2.584-1.912,2.699-3.033
			C107.984,110.177,107.606,109.716,106.796,109.712z M100.267,109.731c-0.056,0.612,0.35,1.132,0.852,1.072
			c1.012-0.121,2.324-1.251,2.26-2.407c-0.027-0.489-0.218-0.767-0.684-0.782c-0.382-0.013-0.425-0.12-0.366-0.486
			c0.112-0.7-0.375-1.103-1.05-0.944c-1.075,0.254-1.725,0.982-2.106,1.962c-0.257,0.66,0.061,1.135,0.743,1.179
			C100.219,109.345,100.434,109.371,100.267,109.731z"/>
		<path fill="#6C6D70" d="M115.699,118.529c0.81-0.675,1.423-1.529,2.018-2.376c1.18-1.679,2.169-3.467,2.833-5.427
			c0.794-2.341,1.226-4.731,1.026-7.202c-0.15-1.854-0.537-3.657-1.296-5.377c-0.463-1.051-0.994-2.062-1.544-3.066
			c-0.106-0.194-0.3-0.461-0.064-0.62c0.282-0.19,0.355,0.167,0.498,0.322c1.692,1.85,2.685,4.078,3.302,6.457
			c0.599,2.311,1.207,4.637,1.003,7.075c-0.201,2.408-0.759,4.716-1.664,6.962c-1.15,2.854-2.858,5.336-4.97,7.524
			c-1.434,1.485-3.126,2.702-4.907,3.761c-2.038,1.212-4.198,2.14-6.542,2.589c-3.507,0.672-6.889,0.293-10.126-1.236
			c-0.298-0.141-0.567-0.351-0.834-0.549c-0.13-0.096-0.276-0.229-0.205-0.42c0.076-0.206,0.278-0.149,0.437-0.15
			c1.612-0.003,3.225,0.033,4.836-0.009c2.766-0.07,5.363-0.798,7.838-2.041c1.142-0.573,2.252-1.188,3.328-1.871
			c0.144-0.091,0.42-0.148,0.31-0.388c-0.079-0.172-0.295-0.075-0.454-0.03c-1.163,0.333-2.629-0.76-2.265-2.299
			c0.692-2.929,2.612-4.706,5.374-5.582c1.686-0.535,2.924,0.829,2.476,2.562c-0.12,0.464-0.4,0.874-0.438,1.363
			c-0.017,0.027-0.034,0.053-0.051,0.08C115.645,118.563,115.672,118.546,115.699,118.529z M111.25,122.353l-0.031-0.021
			l-0.005,0.032L111.25,122.353z"/>
		<path fill="#6C6D70" d="M92.694,92.656c0.092,1.014-0.351,1.894-0.936,2.69c-1.027,1.399-2.245,2.578-3.974,3.091
			c-0.577,0.171-1.167,0.154-1.737,0.064c-0.711-0.113-1.236-1.153-1.121-1.989c0.131-0.954,0.501-1.791,1.07-2.561
			c1.118-1.515,2.46-2.724,4.355-3.142c0.732-0.161,1.44-0.115,2.004,0.53C92.701,91.731,92.708,92.164,92.694,92.656z"/>
		<path fill="#6C6D70" d="M96.497,99.316c0.837-0.126,1.356,0.521,1.098,1.461c-0.399,1.457-1.392,2.388-2.754,2.934
			c-1.077,0.432-1.934-0.354-1.739-1.555C93.293,100.982,95.286,99.314,96.497,99.316z"/>
		<path fill="#6C6D70" d="M106.796,109.712c0.809,0.003,1.187,0.465,1.103,1.287c-0.115,1.121-1.671,2.794-2.699,3.033
			c-0.561,0.13-1.13,0.244-1.58-0.243c-0.425-0.461-0.227-0.969-0.051-1.472C104.043,110.958,105.583,109.707,106.796,109.712z"/>
		<path fill="#6C6D70" d="M100.267,109.731c0.166-0.361-0.048-0.386-0.351-0.405c-0.682-0.044-1-0.519-0.743-1.179
			c0.381-0.979,1.031-1.708,2.106-1.962c0.675-0.16,1.162,0.244,1.05,0.944c-0.058,0.366-0.016,0.473,0.366,0.486
			c0.466,0.015,0.657,0.294,0.684,0.782c0.065,1.156-1.247,2.286-2.26,2.407C100.617,110.864,100.212,110.343,100.267,109.731z"/>
		<path fill="#272729" d="M115.699,118.529c-0.027,0.017-0.053,0.034-0.08,0.05c0.017-0.026,0.034-0.053,0.051-0.08L115.699,118.529
			z"/>
		<polygon fill="#272729" points="111.25,122.353 111.214,122.364 111.219,122.332 		"/>
	</g>
</g>
</svg>
