<?xml version="1.0" encoding="utf-8"?>
<!-- Generator: Adobe Illustrator 17.1.0, SVG Export Plug-In . SVG Version: 6.00 Build 0)  -->
<!DOCTYPE svg PUBLIC "-//W3C//DTD SVG 1.1//EN" "http://www.w3.org/Graphics/SVG/1.1/DTD/svg11.dtd">
<svg version="1.1" id="Layer_1" xmlns="http://www.w3.org/2000/svg" xmlns:xlink="http://www.w3.org/1999/xlink" x="0px" y="0px"
	 width="124.667px" height="125.667px" viewBox="0 0 124.667 125.667" enable-background="new 0 0 124.667 125.667"
	 xml:space="preserve">
<g>
	<circle fill="#409FBC" cx="62.312" cy="62.5" r="60.5"/>
	<g>
		<path fill="#FFFFFF" d="M31.867,68.298h40.173c1.677,0,3.04-1.364,3.04-3.038c0-1.677-1.363-3.04-3.04-3.04H31.868l5.858-5.856
			c1.18-1.185,1.18-3.111-0.006-4.302c-0.575-0.57-1.337-0.885-2.147-0.885S34,51.491,33.424,52.065L22.398,63.093
			c-0.287,0.281-0.514,0.615-0.685,1.023c-0.148,0.37-0.224,0.756-0.224,1.143c0,0.391,0.075,0.777,0.232,1.162
			c0.157,0.384,0.386,0.721,0.658,0.986l11.042,11.045c0.573,0.575,1.337,0.89,2.149,0.89c0.81,0,1.574-0.316,2.153-0.892
			c1.177-1.183,1.179-3.108-0.003-4.298L31.867,68.298z"/>
		<path fill="#FFFFFF" d="M86.361,38.05H52.19c-5.584,0-10.126,4.544-10.126,10.129l0.004,9c0.037,1.637,1.399,2.969,3.035,2.969
			c0.994,0,1.884-0.49,2.44-1.241l0.6-0.009V48.18c0-2.233,1.816-4.05,4.047-4.05h34.171c2.231,0,4.048,1.817,4.048,4.05V82.35
			c0,2.233-1.817,4.05-4.048,4.05H52.19c-2.231,0-4.047-1.817-4.047-4.05l-0.007-10.747h-0.592c-0.55-0.745-1.434-1.223-2.44-1.223
			c-1.655,0-2.989,1.3-3.039,3.04v8.93c0,5.585,4.542,10.129,10.126,10.129h34.171c5.585,0,10.128-4.544,10.128-10.129V48.18
			C96.489,42.595,91.946,38.05,86.361,38.05z"/>
	</g>
</g>
</svg>
