<?xml version="1.0" encoding="utf-8"?>
<!-- Generator: Adobe Illustrator 17.1.0, SVG Export Plug-In . SVG Version: 6.00 Build 0)  -->
<!DOCTYPE svg PUBLIC "-//W3C//DTD SVG 1.1//EN" "http://www.w3.org/Graphics/SVG/1.1/DTD/svg11.dtd">
<svg version="1.1" id="Layer_1" xmlns="http://www.w3.org/2000/svg" xmlns:xlink="http://www.w3.org/1999/xlink" x="0px" y="0px"
	 width="20px" height="32px" viewBox="0 0 20 32" enable-background="new 0 0 20 32" xml:space="preserve">
<g>
	<path fill="#FCFCFC" d="M10,0C4.477,0,0,4.477,0,10c0,7,10,22,10,22s10-15,10-22C20,4.477,15.521,0,10,0z M10.93,17.941
		C10.624,17.967,10.325,18,10,18s-0.625-0.033-0.93-0.059C5.09,17.48,2,14.104,2,10c0-4.419,3.581-8,8-8c4.415,0,8,3.581,8,8
		C18,14.104,14.906,17.48,10.93,17.941z"/>
	<circle fill="#FCFCFC" cx="10" cy="10" r="4"/>
</g>
</svg>
