<?xml version="1.0" encoding="utf-8"?>
<!-- Generator: Adobe Illustrator 17.1.0, SVG Export Plug-In . SVG Version: 6.00 Build 0)  -->
<!DOCTYPE svg PUBLIC "-//W3C//DTD SVG 1.1//EN" "http://www.w3.org/Graphics/SVG/1.1/DTD/svg11.dtd">
<svg version="1.1" id="Layer_1" xmlns="http://www.w3.org/2000/svg" xmlns:xlink="http://www.w3.org/1999/xlink" x="0px" y="0px"
	 width="124.667px" height="125.667px" viewBox="0 0 124.667 125.667" enable-background="new 0 0 124.667 125.667"
	 xml:space="preserve">
<g>
	<circle fill="#409FBC" cx="61.861" cy="62.5" r="60.5"/>
	<g>
		<path fill="#FFFFFF" d="M91.016,38.683c-0.763-0.781-1.675-1.183-2.792-1.183H35.531c-1.117,0-2.062,0.402-2.826,1.183
			c-0.747,0.763-1.149,1.708-1.149,2.792v42.05c0,1.084,0.385,2.045,1.149,2.825c0.748,0.764,1.709,1.15,2.826,1.15h52.693
			c1.117,0,2.045-0.386,2.792-1.15c0.764-0.78,1.15-1.741,1.15-2.825v-42.05C92.166,40.391,91.764,39.446,91.016,38.683z
			 M88.553,83.525c0,0.23-0.099,0.329-0.329,0.329H35.531c-0.231,0-0.329-0.099-0.329-0.329v-42.05c0-0.23,0.098-0.329,0.329-0.329
			h52.693c0.23,0,0.329,0.099,0.329,0.329L88.553,83.525L88.553,83.525z"/>
		<path fill="#FFFFFF" d="M74.952,58.919c1.741,0,3.154-1.445,3.154-3.187c0-1.675-1.413-3.088-3.154-3.088
			c-1.676,0-3.088,1.413-3.088,3.088C71.864,57.474,73.276,58.919,74.952,58.919z"/>
		<polygon fill="#FFFFFF" points="65.655,69.858 52.35,51.988 40.294,76.659 38.684,80.306 84.774,80.306 72.324,64.077 		"/>
	</g>
</g>
</svg>
