<?xml version="1.0" encoding="utf-8"?>
<!-- Generator: Adobe Illustrator 17.1.0, SVG Export Plug-In . SVG Version: 6.00 Build 0)  -->
<!DOCTYPE svg PUBLIC "-//W3C//DTD SVG 1.1//EN" "http://www.w3.org/Graphics/SVG/1.1/DTD/svg11.dtd">
<svg version="1.1" id="Layer_1" xmlns="http://www.w3.org/2000/svg" xmlns:xlink="http://www.w3.org/1999/xlink" x="0px" y="0px"
	 width="19.028px" height="35.589px" viewBox="0 0 19.028 35.589" enable-background="new 0 0 19.028 35.589" xml:space="preserve">
<g id="Forma_1_22_" opacity="0.5">
	<g>
		<path fill-rule="evenodd" clip-rule="evenodd" fill="#FFFFFF" d="M17.182,0H1.845C0.828,0,0,0.8,0,1.784v32.023
			c0,0.982,0.827,1.782,1.845,1.782h15.337c1.018,0,1.846-0.8,1.846-1.782V1.783C19.028,0.8,18.2,0,17.182,0z M6.837,2.772h5.354
			v0.377H6.837V2.772z M9.514,33.723c-0.569,0-1.032-0.464-1.032-1.036c0-0.57,0.463-1.034,1.032-1.034
			c0.569,0,1.032,0.464,1.032,1.034C10.546,33.258,10.083,33.723,9.514,33.723z M17.768,29.847H1.262V5.294h16.506V29.847z"/>
	</g>
</g>
</svg>
