<?xml version="1.0" encoding="utf-8"?>
<!-- Generator: Adobe Illustrator 17.1.0, SVG Export Plug-In . SVG Version: 6.00 Build 0)  -->
<!DOCTYPE svg PUBLIC "-//W3C//DTD SVG 1.1//EN" "http://www.w3.org/Graphics/SVG/1.1/DTD/svg11.dtd">
<svg version="1.1" id="Layer_1" xmlns="http://www.w3.org/2000/svg" xmlns:xlink="http://www.w3.org/1999/xlink" x="0px" y="0px"
	 width="124.667px" height="125.667px" viewBox="0 0 124.667 125.667" enable-background="new 0 0 124.667 125.667"
	 xml:space="preserve">
<g>
	<circle fill="#409FBC" cx="62.778" cy="62.424" r="60.5"/>
	<path fill="#FFFFFF" d="M93.069,29.924H32.496c-1.223,0-2.217,0.99-2.217,2.213v60.573c0,1.223,0.993,2.213,2.217,2.213h60.573
		c1.223,0,2.21-0.99,2.207-2.213V32.138C95.276,30.914,94.293,29.924,93.069,29.924z M90.859,90.497H34.71V34.351h56.15V90.497z
		 M60.002,52.796h-2.721l4.995-10.454c0.125-0.268,0.454-0.383,0.715-0.252L85.95,53.055c0.268,0.131,0.383,0.447,0.256,0.715
		l-9.489,19.866c-0.128,0.268-0.45,0.386-0.722,0.256l-2.15-1.032v-6.886l3.507,1.674l6.222-13.028l-19.901-9.508L60.002,52.796z
		 M46.272,77.14h25.44c0.303,0,0.543-0.24,0.543-0.533V54.594c0-0.297-0.243-0.537-0.543-0.537h-25.44
		c-0.303,0-0.54,0.24-0.54,0.533v22.016C45.732,76.901,45.968,77.14,46.272,77.14z M48.185,56.491h22.054v14.443h-1.607
		c-0.939-2.408-2.095-5.781-3.846-5.331c-2.06,0.527-3.092,5.331-3.092,5.331s-1.051-5.423-3.951-8.323
		c-2.91-2.906-5.714,8.323-5.714,8.323h-3.846V56.491z M51.746,61.388c-0.993,0-1.798-0.805-1.798-1.798s0.805-1.798,1.798-1.798
		c0.993,0,1.798,0.805,1.798,1.798S52.739,61.388,51.746,61.388z M61.312,59.858c0-0.466,0.802-0.853,1.878-0.965
		c0.054-0.434,0.402-0.77,0.846-0.77h0.348c0.233,0,0.444,0.096,0.604,0.246c0.38-0.153,0.84-0.246,1.345-0.246
		c1.316,0,2.395,0.648,2.395,1.447c0,0.802-1.08,1.45-2.395,1.45c-0.524,0-1.003-0.102-1.393-0.268
		c-0.339,0.067-0.719,0.109-1.121,0.109C62.433,60.861,61.312,60.414,61.312,59.858z"/>
</g>
</svg>
