<?xml version="1.0" encoding="utf-8"?>
<!-- Generator: Adobe Illustrator 17.1.0, SVG Export Plug-In . SVG Version: 6.00 Build 0)  -->
<!DOCTYPE svg PUBLIC "-//W3C//DTD SVG 1.1//EN" "http://www.w3.org/Graphics/SVG/1.1/DTD/svg11.dtd">
<svg version="1.1" id="Layer_1" xmlns="http://www.w3.org/2000/svg" xmlns:xlink="http://www.w3.org/1999/xlink" x="0px" y="0px"
	 width="22.103px" height="31.432px" viewBox="0 0 22.103 31.432" enable-background="new 0 0 22.103 31.432" xml:space="preserve">
<g id="Forma_1_34_">
	<g>
		<path fill-rule="evenodd" clip-rule="evenodd" fill="#FFFFFF" d="M20.714,11.191H4.983C4.977,9.272,5.329,6.21,6.951,4.404
			c0.987-1.1,2.329-1.634,4.1-1.634c2.618,0,4.352,1.201,5.3,3.67c0.275,0.714,1.077,1.072,1.794,0.799
			c0.717-0.273,1.076-1.074,0.802-1.788C17.578,1.884,14.848,0,11.052,0C8.48,0,6.404,0.86,4.881,2.557
			C2.55,5.152,2.203,9.05,2.209,11.191h-0.82C0.622,11.191,0,11.811,0,12.575v17.472c0,0.765,0.622,1.385,1.389,1.385h19.325
			c0.767,0,1.389-0.62,1.389-1.385V12.575C22.103,11.811,21.481,11.191,20.714,11.191z M19.325,28.663H2.778V13.96h16.547V28.663z
			 M8.598,25.76h4.968c0.228,0,0.441-0.112,0.571-0.299c0.13-0.187,0.159-0.426,0.078-0.639l-1.348-3.537
			c0.255-0.391,0.612-1.067,0.612-1.786c0-1.292-0.84-2.665-2.396-2.665c-1.556,0-2.396,1.372-2.396,2.665
			c0,0.721,0.368,1.398,0.632,1.791l-1.367,3.529c-0.083,0.213-0.055,0.452,0.075,0.641C8.155,25.647,8.37,25.76,8.598,25.76z
			 M10.751,21.434c0.093-0.236,0.046-0.504-0.117-0.697c-0.145-0.172-0.559-0.769-0.559-1.238c0-0.013,0.027-1.28,1.007-1.28
			c0.98,0,1.007,1.267,1.007,1.28c0,0.475-0.401,1.075-0.541,1.245c-0.158,0.192-0.201,0.454-0.112,0.686l1.122,2.946H9.611
			L10.751,21.434z"/>
	</g>
</g>
</svg>
