<?xml version="1.0" encoding="utf-8"?>
<!-- Generator: Adobe Illustrator 17.1.0, SVG Export Plug-In . SVG Version: 6.00 Build 0)  -->
<!DOCTYPE svg PUBLIC "-//W3C//DTD SVG 1.1//EN" "http://www.w3.org/Graphics/SVG/1.1/DTD/svg11.dtd">
<svg version="1.1" id="Layer_1" xmlns="http://www.w3.org/2000/svg" xmlns:xlink="http://www.w3.org/1999/xlink" x="0px" y="0px"
	 width="124.667px" height="125.667px" viewBox="0 0 124.667 125.667" enable-background="new 0 0 124.667 125.667"
	 xml:space="preserve">
<g>
	<circle fill="#409FBC" cx="62.056" cy="62.841" r="60.5"/>
	<g>
		<path fill="#FFFFFF" d="M87.807,51.185c0-13.789-11.231-25.002-25.011-25.002S37.807,37.399,37.807,51.185
			c0,10.332,6.292,19.219,15.249,23.026l-5.833,25.288l16.158-11.386l16.145,11.386l-5.336-26.087
			C82.257,69.259,87.807,60.865,87.807,51.185z M62.799,69.237c-9.973,0-18.052-8.092-18.052-18.052
			c0-9.954,8.079-18.046,18.052-18.046c9.954,0,18.055,8.092,18.055,18.046C80.854,61.145,72.753,69.237,62.799,69.237z"/>
		<polygon fill="#FFFFFF" points="66.26,46.343 62.805,35.706 59.351,46.343 48.157,46.343 57.209,52.922 53.757,63.555 
			62.805,56.986 71.853,63.555 68.399,52.922 77.45,46.343 		"/>
	</g>
</g>
</svg>
