<?xml version="1.0" encoding="utf-8"?>
<!-- Generator: Adobe Illustrator 17.1.0, SVG Export Plug-In . SVG Version: 6.00 Build 0)  -->
<!DOCTYPE svg PUBLIC "-//W3C//DTD SVG 1.1//EN" "http://www.w3.org/Graphics/SVG/1.1/DTD/svg11.dtd">
<svg version="1.1" id="Layer_1" xmlns="http://www.w3.org/2000/svg" xmlns:xlink="http://www.w3.org/1999/xlink" x="0px" y="0px"
	 width="56.287px" height="67.588px" viewBox="0 0 56.287 67.588" enable-background="new 0 0 56.287 67.588" xml:space="preserve">
<g>
	<polygon fill="#F2F2F2" stroke="#888888" stroke-width="3" stroke-miterlimit="10" points="33.94,17.859 50.257,19.676 
		38.889,31.522 42.204,47.602 27.425,40.451 13.156,48.572 15.389,32.307 3.257,21.247 19.416,18.344 26.186,3.387 	"/>
	<polygon fill="#888888" points="11.047,57.785 16.255,58.365 12.627,62.146 13.685,67.278 8.968,64.996 4.414,67.588 5.127,62.397 
		1.255,58.867 6.412,57.94 8.573,53.167 	"/>
	<polygon fill="#888888" points="31.063,57.785 36.271,58.365 32.643,62.146 33.701,67.278 28.984,64.996 24.43,67.588 
		25.143,62.397 21.271,58.867 26.428,57.94 28.589,53.167 	"/>
	<polygon fill="#888888" points="51.079,57.785 56.287,58.365 52.659,62.146 53.717,67.278 49,64.996 44.446,67.588 45.159,62.397 
		41.287,58.867 46.444,57.94 48.605,53.167 	"/>
</g>
</svg>
