<?xml version="1.0" encoding="utf-8"?>
<!-- Generator: Adobe Illustrator 17.1.0, SVG Export Plug-In . SVG Version: 6.00 Build 0)  -->
<!DOCTYPE svg PUBLIC "-//W3C//DTD SVG 1.1//EN" "http://www.w3.org/Graphics/SVG/1.1/DTD/svg11.dtd">
<svg version="1.1" id="Layer_1" xmlns="http://www.w3.org/2000/svg" xmlns:xlink="http://www.w3.org/1999/xlink" x="0px" y="0px"
	 width="30px" height="30px" viewBox="0 0 30 30" enable-background="new 0 0 30 30" xml:space="preserve">
<path fill="#409FBC" d="M15,0C6.713,0,0,6.713,0,15s6.713,15,15,15s15-6.713,15-15S23.287,0,15,0z M24.413,13.3l-4.673,4.407
	l1.427,5.113c0.287,1.033-0.22,1.427-1.147,0.873L15,20.667l-5.027,3.02c-0.92,0.553-1.46,0.16-1.2-0.887l1.38-5.56l-4.527-3.993
	C4.82,12.533,5.04,11.96,6.113,11.96h5.5l2.613-6.08c0.427-0.987,1.107-0.987,1.52,0.007L18.3,11.96h5.573
	C24.953,11.967,25.193,12.567,24.413,13.3z"/>
</svg>
