<?xml version="1.0" encoding="utf-8"?>
<!-- Generator: Adobe Illustrator 17.1.0, SVG Export Plug-In . SVG Version: 6.00 Build 0)  -->
<!DOCTYPE svg PUBLIC "-//W3C//DTD SVG 1.1//EN" "http://www.w3.org/Graphics/SVG/1.1/DTD/svg11.dtd">
<svg version="1.1" id="Layer_1" xmlns="http://www.w3.org/2000/svg" xmlns:xlink="http://www.w3.org/1999/xlink" x="0px" y="0px"
	 width="36px" height="30.857px" viewBox="0 0 36 30.857" enable-background="new 0 0 36 30.857" xml:space="preserve">
<path fill="#409FBC" d="M20.563,0c-8.529,0-15.42,6.909-15.42,15.429H0l6.677,6.677l0.12,0.249l6.917-6.926H8.571
	c0-6.626,5.374-12,12-12s12,5.374,12,12s-5.374,12-12,12c-3.317,0-6.309-1.354-8.477-3.523l-2.426,2.426
	c2.786,2.794,6.634,4.526,10.894,4.526C29.091,30.857,36,23.949,36,15.429S29.091,0,20.563,0z M18.857,8.571v8.571l7.337,4.354
	l1.234-2.083l-6-3.557V8.571H18.857z"/>
</svg>
