<?xml version="1.0" encoding="utf-8"?>
<!-- Generator: Adobe Illustrator 17.1.0, SVG Export Plug-In . SVG Version: 6.00 Build 0)  -->
<!DOCTYPE svg PUBLIC "-//W3C//DTD SVG 1.1//EN" "http://www.w3.org/Graphics/SVG/1.1/DTD/svg11.dtd">
<svg version="1.1" id="Layer_1" xmlns="http://www.w3.org/2000/svg" xmlns:xlink="http://www.w3.org/1999/xlink" x="0px" y="0px"
	 width="124.667px" height="125.667px" viewBox="0 0 124.667 125.667" enable-background="new 0 0 124.667 125.667"
	 xml:space="preserve">
<g>
	<circle fill="#409FBC" cx="62.232" cy="63.5" r="60.5"/>
	<g>
		<g>
			<path fill="#FFFFFF" d="M56.226,85.343l-1.6-0.59c0.126-1.167,0.085-2.356-0.135-3.538l1.545-0.713
				c0.965-0.443,1.388-1.591,0.943-2.556l-0.902-1.957c-0.444-0.965-1.59-1.39-2.554-0.945l-1.547,0.713
				c-0.756-0.937-1.633-1.74-2.601-2.404l0.591-1.597c0.367-0.996-0.144-2.107-1.14-2.476l-2.023-0.747
				c-0.965-0.355-2.118,0.176-2.474,1.139l-0.59,1.599c-1.166-0.124-2.355-0.083-3.538,0.135l-0.712-1.545
				c-0.444-0.965-1.592-1.388-2.555-0.945l-1.959,0.901c-0.965,0.445-1.387,1.593-0.944,2.556l0.712,1.545
				c-0.935,0.757-1.74,1.634-2.403,2.604l-1.597-0.591c-0.964-0.359-2.119,0.173-2.476,1.139l-0.747,2.023
				c-0.178,0.484-0.157,1.007,0.058,1.474c0.216,0.467,0.601,0.823,1.082,0.999l1.6,0.592c-0.127,1.166-0.085,2.357,0.135,3.538
				l-1.547,0.712c-0.965,0.444-1.387,1.59-0.943,2.555l0.903,1.959c0.444,0.964,1.59,1.388,2.555,0.943l1.547-0.711
				c0.756,0.936,1.633,1.74,2.602,2.403l-0.591,1.599c-0.18,0.482-0.159,1.004,0.058,1.473c0.214,0.467,0.599,0.824,1.082,1.003
				l2.023,0.746c0.481,0.178,1.006,0.157,1.473-0.057c0.468-0.216,0.823-0.6,1-1.083l0.591-1.6c1.166,0.127,2.356,0.085,3.538-0.133
				l0.711,1.545c0.444,0.964,1.592,1.388,2.556,0.943l1.958-0.901c0.966-0.444,1.389-1.59,0.943-2.556l-0.712-1.545
				c0.936-0.757,1.741-1.634,2.402-2.602l1.599,0.591c0.484,0.179,1.007,0.157,1.475-0.059c0.466-0.215,0.821-0.6,0.999-1.082
				l0.747-2.023C57.733,86.822,57.222,85.712,56.226,85.343z M45.63,90.376c-1.01,0.465-2.081,0.7-3.185,0.7
				c-2.966,0-5.683-1.74-6.922-4.431c-1.757-3.817-0.083-8.351,3.732-10.107c1.009-0.466,2.08-0.701,3.183-0.701
				c2.965,0,5.684,1.739,6.924,4.431C51.118,84.085,49.444,88.619,45.63,90.376z"/>
			<path fill="#FFFFFF" d="M75.28,90.859L74.39,90.53c0.071-0.65,0.047-1.312-0.075-1.97l0.86-0.397
				c0.538-0.246,0.773-0.885,0.526-1.424l-0.502-1.09c-0.249-0.538-0.886-0.775-1.422-0.526l-0.862,0.397
				c-0.421-0.521-0.91-0.969-1.448-1.338l0.329-0.89c0.204-0.555-0.081-1.173-0.635-1.379l-1.127-0.416
				c-0.538-0.199-1.179,0.097-1.378,0.634l-0.329,0.891c-0.648-0.07-1.311-0.047-1.969,0.075l-0.396-0.859
				c-0.249-0.538-0.887-0.774-1.424-0.526l-1.09,0.503c-0.538,0.249-0.773,0.886-0.526,1.424l0.397,0.861
				c-0.521,0.421-0.969,0.91-1.339,1.449L61.09,85.62c-0.536-0.2-1.179,0.095-1.378,0.634l-0.417,1.127
				c-0.098,0.269-0.086,0.561,0.032,0.821c0.121,0.26,0.336,0.458,0.604,0.556l0.891,0.329c-0.071,0.65-0.048,1.312,0.075,1.97
				l-0.861,0.397c-0.538,0.248-0.773,0.885-0.526,1.422l0.503,1.091c0.247,0.536,0.885,0.773,1.422,0.526l0.861-0.396
				c0.421,0.521,0.91,0.968,1.449,1.337l-0.329,0.889c-0.1,0.269-0.089,0.561,0.032,0.821c0.12,0.26,0.333,0.459,0.603,0.559
				l1.126,0.416c0.269,0.099,0.56,0.087,0.82-0.032c0.261-0.12,0.459-0.334,0.557-0.602l0.329-0.892
				c0.65,0.071,1.312,0.048,1.97-0.074l0.397,0.861c0.247,0.536,0.886,0.773,1.422,0.524l1.091-0.502
				c0.537-0.249,0.773-0.885,0.525-1.423l-0.396-0.861c0.52-0.421,0.969-0.908,1.337-1.448l0.891,0.329
				c0.269,0.1,0.561,0.087,0.821-0.032c0.259-0.119,0.458-0.334,0.557-0.603l0.416-1.127C76.119,91.682,75.834,91.063,75.28,90.859z
				 M69.38,93.662c-0.562,0.258-1.158,0.389-1.773,0.389c-1.651,0-3.164-0.969-3.854-2.468c-0.979-2.124-0.047-4.649,2.078-5.627
				c0.562-0.259,1.158-0.39,1.772-0.39c1.651,0,3.164,0.968,3.855,2.467C72.435,90.159,71.504,92.682,69.38,93.662z"/>
			<path fill="#FFFFFF" d="M95.479,56.951l-2.69-0.993c0.212-1.961,0.143-3.962-0.226-5.95l2.598-1.196
				c1.622-0.745,2.332-2.675,1.585-4.299l-1.516-3.291c-0.747-1.623-2.674-2.337-4.294-1.588l-2.601,1.2
				c-1.271-1.574-2.746-2.925-4.373-4.041l0.992-2.687c0.617-1.676-0.241-3.543-1.916-4.161l-3.401-1.258
				c-1.623-0.596-3.561,0.296-4.161,1.917l-0.992,2.69c-1.96-0.211-3.96-0.141-5.948,0.225l-1.197-2.596
				c-0.747-1.623-2.674-2.335-4.297-1.588l-3.293,1.516c-1.622,0.748-2.334,2.677-1.588,4.298l1.199,2.598
				c-1.572,1.273-2.926,2.748-4.041,4.377l-2.685-0.992c-1.62-0.604-3.562,0.29-4.162,1.913l-1.255,3.403
				c-0.3,0.812-0.265,1.691,0.096,2.478c0.365,0.785,1.012,1.383,1.821,1.679l2.69,0.996c-0.214,1.959-0.144,3.962,0.226,5.949
				l-2.598,1.196c-1.623,0.748-2.333,2.674-1.586,4.295l1.517,3.295c0.747,1.62,2.674,2.334,4.296,1.586l2.599-1.197
				c1.271,1.574,2.746,2.926,4.376,4.04l-0.994,2.688c-0.302,0.811-0.267,1.69,0.096,2.477c0.36,0.785,1.008,1.385,1.818,1.686
				l3.401,1.254c0.811,0.3,1.691,0.265,2.477-0.095c0.787-0.362,1.384-1.009,1.682-1.821l0.995-2.691
				c1.959,0.214,3.96,0.144,5.95-0.224l1.195,2.597c0.747,1.62,2.676,2.334,4.298,1.586l3.293-1.516
				c1.624-0.748,2.333-2.674,1.586-4.297l-1.197-2.598c1.573-1.274,2.927-2.746,4.039-4.375l2.689,0.995
				c0.812,0.3,1.692,0.264,2.479-0.098c0.784-0.362,1.38-1.009,1.68-1.818l1.257-3.403C98.013,59.436,97.154,57.569,95.479,56.951z
				 M77.666,65.412c-1.698,0.781-3.499,1.177-5.354,1.177c-4.987,0-9.554-2.925-11.639-7.452
				c-2.954-6.416-0.139-14.039,6.274-16.992c1.696-0.782,3.498-1.177,5.352-1.177c4.986,0,9.556,2.924,11.641,7.449
				C86.892,54.835,84.078,62.458,77.666,65.412z"/>
		</g>
	</g>
</g>
</svg>
