<?xml version="1.0" encoding="utf-8"?>
<!-- Generator: Adobe Illustrator 17.1.0, SVG Export Plug-In . SVG Version: 6.00 Build 0)  -->
<!DOCTYPE svg PUBLIC "-//W3C//DTD SVG 1.1//EN" "http://www.w3.org/Graphics/SVG/1.1/DTD/svg11.dtd">
<svg version="1.1" id="Layer_1" xmlns="http://www.w3.org/2000/svg" xmlns:xlink="http://www.w3.org/1999/xlink" x="0px" y="0px"
	 width="50.002px" height="50px" viewBox="0 0 50.002 50" enable-background="new 0 0 50.002 50" xml:space="preserve">
<g>
	<path fill="#FFFFFF" d="M25.001,50C11.215,50,0,38.785,0,25S11.215,0,25.001,0s25.001,11.215,25.001,25S38.786,50,25.001,50z
		 M25.001,1.695C12.151,1.695,1.695,12.15,1.695,25S12.15,48.305,25.001,48.305S48.307,37.85,48.307,25S37.852,1.695,25.001,1.695z"
		/>
	<path fill="#FFFFFF" d="M27.881,33.777c-0.217,0-0.434-0.083-0.6-0.249l-8.282-8.29c-0.33-0.331-0.33-0.868,0-1.199l8.282-8.288
		c0.331-0.331,0.868-0.331,1.199,0c0.331,0.331,0.331,0.868,0,1.199l-7.683,7.689l7.684,7.691c0.33,0.331,0.33,0.869,0,1.199
		C28.315,33.694,28.098,33.777,27.881,33.777z"/>
</g>
</svg>
