<?xml version="1.0" encoding="utf-8"?>
<!-- Generator: Adobe Illustrator 17.1.0, SVG Export Plug-In . SVG Version: 6.00 Build 0)  -->
<!DOCTYPE svg PUBLIC "-//W3C//DTD SVG 1.1//EN" "http://www.w3.org/Graphics/SVG/1.1/DTD/svg11.dtd">
<svg version="1.1" id="Layer_1" xmlns="http://www.w3.org/2000/svg" xmlns:xlink="http://www.w3.org/1999/xlink" x="0px" y="0px"
	 width="124.667px" height="125.667px" viewBox="0 0 124.667 125.667" enable-background="new 0 0 124.667 125.667"
	 xml:space="preserve">
<g>
	<circle fill="#409FBC" cx="62.536" cy="62.923" r="60.5"/>
	<path fill="#FFFFFF" d="M75.636,32.425H32.303v43.333h43.333V32.425z M70.22,64.925h-5.417c-1.053-3.924-3.349-5.75-6.281-6.519
		c-1.357,0.725-2.906,1.143-4.553,1.143c-1.644,0-3.193-0.414-4.55-1.143c-2.933,0.769-5.23,2.594-6.284,6.519H37.72V37.842h32.5
		L70.22,64.925L70.22,64.925z M53.97,56.8c4.487,0,8.125-3.638,8.125-8.125s-3.638-8.125-8.125-8.125
		c-4.488,0-8.125,3.638-8.125,8.125S49.483,56.8,53.97,56.8z M59.403,51.384c-1,1.999-3.047,3.385-5.433,3.385
		s-4.435-1.386-5.433-3.385H59.403z M46.135,78.467h32.21V64.481l4.049-15.914l-4.049-1.029v-5.59l10.632,2.706L78.293,86.65
		L46.135,78.467z M97.303,57.279l-16.31,40.146l-40.148-16.31l0.444-1.088l38.963,9.915l3.461-13.602l6.533-16.082l-2.212-0.899
		l1.349-5.3L97.303,57.279z"/>
</g>
</svg>
