<?xml version="1.0" encoding="utf-8"?>
<!-- Generator: Adobe Illustrator 17.1.0, SVG Export Plug-In . SVG Version: 6.00 Build 0)  -->
<!DOCTYPE svg PUBLIC "-//W3C//DTD SVG 1.1//EN" "http://www.w3.org/Graphics/SVG/1.1/DTD/svg11.dtd">
<svg version="1.1" id="Layer_1" xmlns="http://www.w3.org/2000/svg" xmlns:xlink="http://www.w3.org/1999/xlink" x="0px" y="0px"
	 width="30.837px" height="27.446px" viewBox="0 0 30.837 27.446" enable-background="new 0 0 30.837 27.446" xml:space="preserve">
<g id="Forma_1_36_">
	<g>
		<path fill-rule="evenodd" clip-rule="evenodd" fill="#FFFFFF" d="M30.498,27.109v-0.995l-0.794-3.121
			c-0.005-1.307-0.917-1.338-2.005-1.776l-5.083-2.048c-0.089-0.035-0.175-0.072-0.262-0.111v-0.002
			c-0.904-0.411-1.701-0.984-1.994-1.387l-0.012-0.013l-0.003-0.007c-0.017-0.026-0.035-0.053-0.05-0.078l-0.012-0.021l-0.002-0.005
			l-0.011-0.013v-0.001c-0.135-0.205-0.272-0.297-0.388-0.257l-0.007,0.003l-0.003,0.001l-0.001,0.001l-0.007,0.003l-0.005,0.001
			l-0.006,0.006c-0.137,0.072-0.11-0.007-0.166-0.159c-0.138-0.374-0.365-1.086-0.399-1.19c-0.053-0.195-0.195,0.308-0.162-0.235
			l0.058-0.981c0.094-0.101,0.169-0.184,0.221-0.24c0.331-0.381,0.354-1.388,0.52-1.633c0.166-0.246,0.499-0.299,0.83-1.441
			c0.332-1.143,0.737-2.776,0.31-2.802c-0.105-0.007-0.224,0.061-0.346,0.17c0.075-0.42,0.233-1.372,0.269-2.074
			c0.048-0.925-0.105-3.299-0.628-4.168c-0.327-0.544-0.987-1.082-1.645-1.502C18.32,0.78,17.927,0.571,17.606,0.43
			c-0.958-0.428-3.978-0.231-5.001,0c-1.165,0.262-1.982,0.998-2.504,1.868C9.58,3.168,9.349,5.779,9.394,6.704
			C9.416,7.119,9.663,7.82,9.726,8.247C9.761,8.47,9.794,8.472,9.822,8.631C9.778,8.615,9.736,8.606,9.697,8.608
			c-0.427,0.027-0.023,1.659,0.308,2.802c0.333,1.142,0.664,1.195,0.83,1.441c0.166,0.245,0.189,1.252,0.523,1.633
			c0.052,0.061,0.133,0.148,0.232,0.255l0.063,0.8l0.112,0.445c-0.051-0.128-0.152-0.211-0.2-0.044
			c-0.143,0.437-0.286,0.874-0.429,1.311c-0.015-0.021-0.038-0.035-0.065-0.037c-0.138-0.123-0.325-0.016-0.494,0.268
			c-0.251,0.421-1.082,1.026-2.046,1.464L8.517,19l-0.013,0.052l-0.005,0.021c-0.076,0.034-0.152,0.067-0.23,0.097l-5.083,2.048
			c-1.087,0.438-2,0.469-2.005,1.776l-0.778,4.116H30.498z"/>
	</g>
</g>
</svg>
