<?xml version="1.0" encoding="utf-8"?>
<!-- Generator: Adobe Illustrator 17.1.0, SVG Export Plug-In . SVG Version: 6.00 Build 0)  -->
<!DOCTYPE svg PUBLIC "-//W3C//DTD SVG 1.1//EN" "http://www.w3.org/Graphics/SVG/1.1/DTD/svg11.dtd">
<svg version="1.1" id="Layer_1" xmlns="http://www.w3.org/2000/svg" xmlns:xlink="http://www.w3.org/1999/xlink" x="0px" y="0px"
	 width="30.001px" height="30px" viewBox="0 0 30.001 30" enable-background="new 0 0 30.001 30" xml:space="preserve">
<path fill="#409FBC" d="M15.001,0C6.717,0,0,6.716,0,15s6.716,15,15.001,15s15.001-6.716,15.001-15S23.286,0,15.001,0z
	 M15.001,4.485c2.74,0,4.962,2.222,4.962,4.962c0,2.74-2.221,4.962-4.962,4.962c-2.74,0-4.961-2.221-4.961-4.962
	C10.04,6.707,12.261,4.485,15.001,4.485z M14.997,26.078c-2.734,0-5.238-0.996-7.169-2.644c-0.47-0.401-0.742-0.989-0.742-1.608
	c0-2.778,2.249-5.002,5.028-5.002h5.774c2.779,0,5.02,2.224,5.02,5.002c0,0.619-0.271,1.206-0.742,1.607
	C20.236,25.083,17.732,26.078,14.997,26.078z"/>
</svg>
