<?xml version="1.0" encoding="utf-8"?>
<!-- Generator: Adobe Illustrator 17.1.0, SVG Export Plug-In . SVG Version: 6.00 Build 0)  -->
<!DOCTYPE svg PUBLIC "-//W3C//DTD SVG 1.1//EN" "http://www.w3.org/Graphics/SVG/1.1/DTD/svg11.dtd">
<svg version="1.1" id="Layer_1" xmlns="http://www.w3.org/2000/svg" xmlns:xlink="http://www.w3.org/1999/xlink" x="0px" y="0px"
	 width="124.667px" height="125.667px" viewBox="0 0 124.667 125.667" enable-background="new 0 0 124.667 125.667"
	 xml:space="preserve">
<g>
	<circle fill="#409FBC" cx="62.048" cy="62.5" r="60.5"/>
	<g>
		<path fill="#FFFFFF" d="M60.433,62.471c0-1.731-0.83-3.218-2.331-3.218c-1.473,0-2.332,1.401-2.332,3.275
			c0,1.888,0.887,3.218,2.346,3.218C59.59,65.747,60.433,64.345,60.433,62.471z"/>
		<path fill="#FFFFFF" d="M90.072,62.5l5.227-5.148l-6.562-3.28l3.38-6.511l-7.254-1.092l1.203-7.237l-7.236,1.203l-1.092-7.255
			l-6.511,3.38L67.946,30l-5.147,5.227L57.652,30l-3.281,6.562l-6.511-3.38l-1.092,7.254l-7.236-1.203l1.203,7.237l-7.254,1.092
			l3.38,6.511l-6.561,3.28l5.227,5.148l-5.227,5.148l6.562,3.28l-3.381,6.511l7.254,1.092l-1.203,7.237l7.236-1.203l1.092,7.255
			l6.511-3.38L57.652,95l5.147-5.227L67.946,95l3.281-6.561l6.511,3.38l1.092-7.255l7.236,1.203l-1.203-7.237l7.254-1.092
			l-3.38-6.51l6.562-3.28L90.072,62.5z M62.799,85.797c-10.627,0-19.586-7.118-22.385-16.845h6.801v7.675
			c1.227,1.353,2.631,2.54,4.17,3.537V68.953h4.888v13.545c1.247,0.407,2.545,0.698,3.882,0.866V68.953h4.888v14.462
			c1.387-0.147,2.734-0.428,4.026-0.83V68.953h4.888v11.376c1.64-1.028,3.131-2.273,4.425-3.7v-7.676h6.801
			C82.385,78.679,73.426,85.797,62.799,85.797z M44.115,57.68h2.389l1.173,4.076c0.329,1.145,0.629,2.245,0.859,3.447h0.043
			c0.243-1.158,0.543-2.302,0.872-3.404l1.23-4.119h2.317l-3.246,9.64h-2.547L44.115,57.68z M53.468,62.571
			c0-2.889,1.845-5.048,4.691-5.048c2.961,0,4.576,2.217,4.576,4.877c0,3.161-1.917,5.077-4.734,5.077
			C55.142,67.477,53.468,65.317,53.468,62.571z M63.035,59.511V57.68h7.408v1.831h-2.631v7.809h-2.189v-7.809H63.035z M77.336,61.47
			v1.773H73.79v2.289h3.962v1.788h-6.151v-9.64h5.95v1.788h-3.762v2.002L77.336,61.47z M80.21,64.874
			c0.758,0,1.259,0.544,1.273,1.302c0,0.744-0.5,1.301-1.273,1.301c-0.772,0-1.287-0.558-1.287-1.301
			C78.923,65.417,79.452,64.874,80.21,64.874z M79.066,57.68h2.274l-0.315,6.479h-1.63L79.066,57.68z M78.383,56.047v-7.676
			c-1.295-1.427-2.786-2.672-4.425-3.701v11.377h-4.888V42.415c-1.293-0.403-2.64-0.683-4.026-0.83v14.462h-4.888V41.636
			c-1.337,0.168-2.635,0.459-3.882,0.866v13.545h-4.888V44.834c-1.539,0.997-2.943,2.185-4.17,3.537v7.675h-6.8
			c2.799-9.726,11.758-16.844,22.385-16.844s19.586,7.118,22.385,16.845H78.383z"/>
	</g>
</g>
</svg>
